<svg width="36" height="36" viewBox="0 0 36 36" fill="none" xmlns="http://www.w3.org/2000/svg">
<g clip-path="url(#clip0_855_2641)">
<path d="M4.4516 21.8327V30.7925H1.1543C1.04241 30.7925 0.935103 30.837 0.855986 30.9161C0.776869 30.9952 0.732422 31.1025 0.732422 31.2144V35.5781C0.732422 35.69 0.776869 35.7973 0.855986 35.8764C0.935103 35.9555 1.04241 36 1.1543 36H34.8461C34.958 36 35.0653 35.9555 35.1444 35.8764C35.2235 35.7973 35.268 35.69 35.268 35.5781V31.2144C35.268 31.1025 35.2235 30.9952 35.1444 30.9161C35.0653 30.837 34.958 30.7925 34.8461 30.7925H31.5484V12.5795C31.5484 12.4676 31.504 12.3603 31.4249 12.2812C31.3457 12.2021 31.2384 12.1576 31.1265 12.1576H26.7632C26.6513 12.1576 26.544 12.2021 26.4649 12.2812C26.3858 12.3603 26.3414 12.4676 26.3414 12.5795V30.7925H24.2522V17.867C24.2522 17.7551 24.2077 17.6478 24.1286 17.5687C24.0495 17.4896 23.9422 17.4451 23.8303 17.4451H19.4666C19.3547 17.4451 19.2474 17.4896 19.1683 17.5687C19.0892 17.6478 19.0447 17.7551 19.0447 17.867V30.7925H16.9556V15.3114C16.9556 15.1995 16.9111 15.0922 16.832 15.0131C16.7529 14.934 16.6456 14.8895 16.5337 14.8895H12.1701C12.0582 14.8895 11.9509 14.934 11.8718 15.0131C11.7927 15.0922 11.7482 15.1995 11.7482 15.3114V30.7925H9.65902V21.8327C9.65902 21.7208 9.61457 21.6135 9.53545 21.5344C9.45633 21.4553 9.34903 21.4108 9.23714 21.4108H4.87348C4.76159 21.4108 4.65428 21.4553 4.57517 21.5344C4.49605 21.6135 4.4516 21.7208 4.4516 21.8327ZM34.4242 35.1562H1.57617V31.6363H34.4242V35.1562ZM27.1851 13.0014H30.705V30.7925H27.1851V13.0014ZM19.8885 18.2889H23.4084V30.7925H19.8885V18.2889ZM12.592 15.7333H16.1118V30.7925H12.592V15.7333ZM8.81527 22.2546V30.7925H5.29535V22.2546H8.81527ZM14.6247 9.78366C14.5495 9.75166 14.4667 9.74214 14.3862 9.75625C14.3057 9.77037 14.2311 9.80751 14.1713 9.86318L6.80313 16.7369C6.76262 16.7747 6.72994 16.8201 6.70697 16.8705C6.684 16.921 6.67118 16.9754 6.66925 17.0308C6.66732 17.0861 6.67632 17.1414 6.69572 17.1932C6.71513 17.2451 6.74457 17.2927 6.78236 17.3332C6.82014 17.3737 6.86554 17.4064 6.91596 17.4294C6.96638 17.4524 7.02082 17.4652 7.07619 17.4671C7.13157 17.469 7.18677 17.46 7.23867 17.4406C7.29056 17.4212 7.33812 17.3918 7.37864 17.354L14.546 10.6673L21.5184 13.6439C21.5861 13.6728 21.6601 13.6834 21.7331 13.6749C21.8061 13.6663 21.8757 13.6388 21.9348 13.5951L27.4725 9.50192C27.4779 9.49791 27.4827 9.49348 27.4879 9.48933C28.6791 9.86683 29.9698 9.77208 31.0932 9.22467C32.2165 8.67727 33.0865 7.71908 33.5232 6.54828C33.9599 5.37747 33.9299 4.0836 33.4395 2.93426C32.9491 1.78492 32.0357 0.868012 30.8883 0.373171C29.7408 -0.121669 28.4471 -0.156594 27.2746 0.275619C26.1021 0.707833 25.1406 1.57412 24.5889 2.69533C24.0372 3.81655 23.9374 5.10691 24.3104 6.29957C24.6833 7.49224 25.5003 8.49596 26.5924 9.10318L21.6275 12.773L14.6247 9.78366ZM24.9325 4.85658C24.9325 4.0629 25.1679 3.28704 25.6088 2.62711C26.0498 1.96718 26.6765 1.45283 27.4098 1.1491C28.143 0.845374 28.9499 0.765904 29.7283 0.920745C30.5068 1.07559 31.2218 1.45778 31.783 2.019C32.3443 2.58022 32.7265 3.29526 32.8813 4.0737C33.0361 4.85213 32.9567 5.659 32.6529 6.39227C32.3492 7.12554 31.8349 7.75228 31.1749 8.19322C30.515 8.63417 29.7391 8.86953 28.9455 8.86953C27.8815 8.86843 26.8614 8.4453 26.109 7.69297C25.3566 6.94065 24.9333 5.92058 24.9322 4.85658H24.9325ZM29.3673 7.95877V7.57908C29.405 7.57347 29.4425 7.56643 29.4798 7.55799C30.1799 7.39704 30.6388 6.81268 30.6488 6.06884C30.6639 4.94518 29.9395 4.65675 29.367 4.50326V3.02431C29.4791 3.07076 29.5794 3.14153 29.6608 3.23152C29.7422 3.3215 29.8026 3.42845 29.8376 3.54462C29.8545 3.59776 29.8817 3.64704 29.9176 3.68962C29.9536 3.73219 29.9977 3.76721 30.0473 3.79266C30.0969 3.8181 30.151 3.83347 30.2066 3.83787C30.2621 3.84227 30.318 3.83561 30.371 3.81828C30.424 3.80096 30.473 3.7733 30.5152 3.73692C30.5574 3.70054 30.592 3.65615 30.617 3.60632C30.642 3.55649 30.6568 3.5022 30.6607 3.44659C30.6646 3.39099 30.6574 3.33517 30.6396 3.28236C30.5509 2.99545 30.3855 2.73826 30.1612 2.53865C29.9368 2.33903 29.6622 2.2046 29.3669 2.1499V1.75439C29.3669 1.64251 29.3225 1.5352 29.2433 1.45608C29.1642 1.37697 29.0569 1.33252 28.945 1.33252C28.8331 1.33252 28.7258 1.37697 28.6467 1.45608C28.5676 1.5352 28.5232 1.64251 28.5232 1.75439V2.18112C27.8881 2.3633 27.4701 2.886 27.4626 3.53991C27.4506 4.57632 27.9929 4.95439 28.5232 5.14367V6.58191C28.3099 6.44263 28.1388 6.24758 28.0286 6.01793C28.0037 5.96841 27.9693 5.92428 27.9274 5.88804C27.8855 5.8518 27.8369 5.82418 27.7843 5.80674C27.7317 5.78931 27.6762 5.7824 27.6209 5.78642C27.5656 5.79044 27.5117 5.8053 27.4622 5.83016C27.4127 5.85503 27.3685 5.8894 27.3323 5.93132C27.296 5.97324 27.2684 6.02188 27.251 6.07448C27.2335 6.12707 27.2266 6.18259 27.2307 6.23785C27.2347 6.29312 27.2495 6.34705 27.2744 6.39657C27.5784 7.0021 28.0465 7.35218 28.523 7.50561V7.95877C28.523 8.07066 28.5675 8.17796 28.6466 8.25708C28.7257 8.3362 28.833 8.38065 28.9449 8.38065C29.0568 8.38065 29.1641 8.3362 29.2432 8.25708C29.3223 8.17796 29.3668 8.07066 29.3668 7.95877H29.3673ZM29.8054 6.0578C29.801 6.38546 29.6423 6.6203 29.3673 6.71389V5.38498C29.6906 5.49804 29.8106 5.64493 29.8051 6.0578H29.8054ZM28.3062 3.54961C28.3037 3.46352 28.3222 3.37811 28.36 3.30071C28.3977 3.22331 28.4537 3.15623 28.5232 3.10524V4.20331C28.3699 4.07808 28.3023 3.89 28.3062 3.54961Z" fill="#030303"/>
</g>
<defs>
<clipPath id="clip0_855_2641">
<rect width="36" height="36" fill="white"/>
</clipPath>
</defs>
</svg>
