<svg width="14" height="14" viewBox="0 0 14 14" fill="none" xmlns="http://www.w3.org/2000/svg">
<path d="M5.90101 11.0794L5.86718 11.0823L5.79835 11.0823L5.76451 11.0794L5.72951 11.0741L5.69918 11.0683L5.63618 11.0496L5.5971 11.0339L5.5201 10.993L5.4676 10.9551L5.42035 10.9125L5.37193 10.8577L5.34043 10.8128L5.30893 10.7568L5.29901 10.7358L5.28326 10.6967L5.2646 10.6337L5.25876 10.6028L5.25293 10.5678L5.2506 10.5345L5.24943 10.5001L5.24943 3.50011C5.24943 3.00311 5.8246 2.74352 6.19618 3.04336L6.24518 3.08769L9.74518 6.58769C9.84562 6.68814 9.90595 6.82178 9.91486 6.96354C9.92378 7.10531 9.88066 7.24546 9.7936 7.35769L9.74518 7.41252L6.24518 10.9125L6.19035 10.9609L6.14543 10.9924L6.08943 11.0239L6.06843 11.0339L6.02935 11.0496L5.96635 11.0683L5.93543 11.0741L5.90043 11.0799L5.90101 11.0794Z" fill="#F90945"/>
</svg>
