<svg width="36" height="36" viewBox="0 0 36 36" fill="none" xmlns="http://www.w3.org/2000/svg">
<g clip-path="url(#clip0_855_2637)">
<path d="M34.875 20.2236H30.5627L29.6849 18.7031L30.5627 17.1827H34.875C34.9711 17.1827 35.0657 17.158 35.1496 17.1111C35.2335 17.0642 35.304 16.9965 35.3543 16.9146C35.4046 16.8326 35.4331 16.7392 35.437 16.6431C35.4409 16.547 35.4202 16.4516 35.3767 16.3658C34.4892 14.6157 32.7199 13.5285 30.7592 13.5286C28.8542 13.5286 27.1289 14.5637 26.2258 16.2063C26.1416 16.0769 26.0441 15.9567 25.935 15.8475C25.5202 15.4325 24.9702 15.204 24.3865 15.204C23.9462 15.2035 23.516 15.3364 23.1526 15.5851C22.8226 14.7915 22.0392 14.2321 21.1275 14.2321C20.7083 14.2316 20.2979 14.352 19.9454 14.5789C19.6522 13.7133 18.832 13.0886 17.8686 13.0886C17.0404 13.0886 16.3179 13.5504 15.9452 14.2301C15.5628 13.9346 15.093 13.7746 14.6097 13.7751C13.4011 13.7751 12.4177 14.7584 12.4177 15.9671V16.3555H9.85358C8.97461 14.6263 7.20315 13.5285 5.24094 13.5285C3.28028 13.5285 1.51101 14.6157 0.623522 16.3657C0.580041 16.4514 0.559265 16.5469 0.563177 16.6429C0.567089 16.739 0.595558 16.8325 0.645867 16.9144C0.696176 16.9963 0.766646 17.064 0.850549 17.1109C0.934452 17.1579 1.02899 17.1825 1.12513 17.1825L5.43747 17.1826L6.31532 18.7031L5.43747 20.2234L1.12499 20.2236C1.02884 20.2236 0.934297 20.2483 0.850384 20.2952C0.766472 20.3422 0.695992 20.4098 0.645675 20.4918C0.595357 20.5737 0.566882 20.6672 0.562967 20.7632C0.559051 20.8593 0.579828 20.9548 0.623311 21.0405C1.5108 22.7905 3.28007 23.8777 5.24073 23.8778C6.74915 23.8778 8.14429 23.2285 9.10848 22.143L8.96751 22.8251C8.42603 25.4448 10.0365 26.7051 11.3304 27.7178C12.2115 28.4073 12.9724 29.0028 12.9826 29.8806V34.875C12.9826 35.0242 13.0419 35.1673 13.1474 35.2728C13.2529 35.3782 13.3959 35.4375 13.5451 35.4375H24.8085C25.0888 35.4375 25.3204 35.2323 25.3633 34.9642L25.4067 35.0771C25.4475 35.1832 25.5196 35.2744 25.6133 35.3387C25.707 35.4031 25.818 35.4375 25.9317 35.4375H27.169C27.2826 35.4375 27.3936 35.4031 27.4873 35.3387C27.581 35.2744 27.6531 35.1832 27.6939 35.0771L27.8835 34.5846C28.1428 34.504 28.3941 34.3997 28.6344 34.2733L29.117 34.4877C29.2208 34.5338 29.3363 34.5474 29.448 34.5266C29.5598 34.5059 29.6626 34.4517 29.743 34.3714L30.6179 33.4965C30.6983 33.4161 30.7524 33.3132 30.7732 33.2015C30.794 33.0897 30.7804 32.9743 30.7343 32.8704L30.5198 32.3876C30.6462 32.1474 30.7504 31.8961 30.831 31.637L31.3237 31.4473C31.4298 31.4065 31.521 31.3345 31.5854 31.2408C31.6497 31.1471 31.6841 31.0361 31.6841 30.9224V29.6851C31.6841 29.5714 31.6497 29.4604 31.5854 29.3667C31.521 29.273 31.4298 29.201 31.3237 29.1601L30.8312 28.9706C30.7506 28.7113 30.6465 28.4599 30.52 28.2196L30.7343 27.7371C30.7804 27.6332 30.794 27.5178 30.7733 27.406C30.7525 27.2943 30.6984 27.1914 30.618 27.111L29.7431 26.2361C29.6627 26.1558 29.5598 26.1017 29.4481 26.0809C29.3363 26.0601 29.2209 26.0737 29.117 26.1198L28.6342 26.3343C28.394 26.2079 28.1428 26.1037 27.8836 26.0231L27.694 25.5304C27.6531 25.4243 27.5811 25.3331 27.4874 25.2688C27.3937 25.2044 27.2827 25.17 27.169 25.17H27.135C27.1097 24.2152 26.9616 23.1831 26.7615 21.9909C27.7278 23.1678 29.1817 23.8778 30.7592 23.8778C32.72 23.8778 34.4893 22.7906 35.3767 21.0405C35.4201 20.9548 35.4408 20.8593 35.4369 20.7632C35.433 20.6672 35.4045 20.5737 35.3542 20.4918C35.3039 20.4099 35.2334 20.3422 35.1495 20.2953C35.0656 20.2483 34.9711 20.2236 34.875 20.2236ZM24.3865 16.3291C24.6696 16.3291 24.9371 16.4405 25.1394 16.643C25.3419 16.8454 25.4533 17.1128 25.4533 17.396V20.0265C25.4533 20.3097 25.3419 20.5772 25.1395 20.7796C24.9372 20.982 24.6697 21.0935 24.3865 21.0935C23.7981 21.0935 23.3195 20.6148 23.3195 20.0264V20.0247L23.3177 19.4853L23.3195 17.3964V17.396C23.3194 16.8077 23.7981 16.3291 24.3865 16.3291ZM21.1274 15.3572C21.7158 15.3572 22.1944 15.8359 22.1945 16.4242V17.3956L22.1927 19.4867L22.1945 20.0266C22.1944 20.615 21.7158 21.0935 21.1274 21.0935C20.5391 21.0935 20.0605 20.6149 20.0605 20.0265V16.4242C20.0604 15.8359 20.539 15.3572 21.1274 15.3572ZM16.8015 15.2807C16.8015 14.6924 17.2802 14.2137 17.8685 14.2137C18.4568 14.2137 18.9354 14.6924 18.9354 15.2807V20.077C18.5614 19.2705 17.7463 18.7088 16.8014 18.7041V15.2807H16.8015ZM14.6095 14.9002C15.1978 14.9002 15.6764 15.3789 15.6764 15.9672V18.7039H13.5425V15.9671C13.5425 15.3788 14.0212 14.9002 14.6095 14.9002ZM5.2408 22.7528C4.04008 22.7527 2.93097 22.2316 2.17244 21.3486L5.7621 21.3486C5.86084 21.3486 5.95784 21.3226 6.04335 21.2732C6.12886 21.2238 6.19987 21.1528 6.24922 21.0673L7.45185 18.9844C7.50122 18.8989 7.52721 18.8019 7.52721 18.7032C7.52721 18.6045 7.50122 18.5075 7.45185 18.4219L6.24922 16.339C6.19986 16.2535 6.12885 16.1825 6.04334 16.1331C5.95783 16.0838 5.86084 16.0578 5.7621 16.0578L2.17244 16.0577C2.93097 15.1747 4.04008 14.6536 5.2408 14.6536C6.87627 14.6536 8.34243 15.6279 8.97601 17.1359C9.01891 17.238 9.09101 17.3252 9.18326 17.3865C9.27551 17.4478 9.38381 17.4805 9.49457 17.4805H12.4176V18.7709C11.5695 18.9236 10.8115 19.3323 10.2302 19.9258H9.49457C9.38381 19.9258 9.27551 19.9585 9.18327 20.0198C9.09102 20.0811 9.01892 20.1683 8.97601 20.2704C8.34236 21.7783 6.87627 22.7528 5.2408 22.7528ZM21.777 31.4473L22.2694 31.6368C22.3501 31.8961 22.4543 32.1475 22.5807 32.3878L22.3664 32.8703C22.3203 32.9742 22.3067 33.0896 22.3274 33.2014C22.3482 33.3132 22.4023 33.416 22.4827 33.4964L23.2988 34.3125H14.1077V30.4372C17.2254 30.4342 19.6614 30.4326 21.4166 30.4322V30.9223C21.4166 31.036 21.451 31.147 21.5153 31.2407C21.5797 31.3344 21.6709 31.4064 21.777 31.4473ZM27.3304 27.0371C27.6758 27.1193 28.0059 27.2562 28.3082 27.4425C28.386 27.4904 28.4743 27.5186 28.5654 27.5247C28.6566 27.5308 28.7479 27.5147 28.8313 27.4776L29.2207 27.3047L29.5494 27.6334L29.3766 28.0225C29.3395 28.106 29.3233 28.1973 29.3294 28.2885C29.3355 28.3796 29.3637 28.4679 29.4116 28.5458C29.598 28.848 29.7349 29.1782 29.8171 29.5237C29.8382 29.6125 29.8807 29.6949 29.9408 29.7637C30.001 29.8325 30.077 29.8856 30.1622 29.9184L30.5592 30.0712V30.5361L30.1621 30.6889C30.0768 30.7218 30.0009 30.7749 29.9407 30.8436C29.8806 30.9124 29.8381 30.9947 29.8169 31.0836C29.7347 31.429 29.5979 31.7591 29.4116 32.0613C29.3637 32.1391 29.3355 32.2274 29.3293 32.3186C29.3232 32.4097 29.3394 32.501 29.3765 32.5845L29.5494 32.9738L29.2206 33.3026L28.8315 33.1298C28.748 33.0927 28.6567 33.0765 28.5655 33.0826C28.4743 33.0887 28.386 33.117 28.3082 33.1649C28.0059 33.3513 27.6758 33.4882 27.3303 33.5704C27.2414 33.5915 27.159 33.6339 27.0903 33.6941C27.0215 33.7542 26.9684 33.8302 26.9356 33.9154L26.7829 34.3125H26.318L26.1651 33.9154C26.1323 33.8301 26.0792 33.7541 26.0104 33.694C25.9416 33.6338 25.8592 33.5913 25.7703 33.5702C25.4249 33.4881 25.0949 33.3512 24.7927 33.1649C24.7148 33.117 24.6265 33.0888 24.5354 33.0826C24.4442 33.0765 24.3529 33.0927 24.2694 33.1298L23.88 33.3027L23.5513 32.974L23.7241 32.5849C23.7612 32.5014 23.7774 32.4101 23.7713 32.319C23.7652 32.2278 23.7369 32.1395 23.689 32.0617C23.5027 31.7593 23.3658 31.4292 23.2836 31.0837C23.2625 30.9948 23.22 30.9124 23.1598 30.8437C23.0997 30.7749 23.0237 30.7218 22.9385 30.689L22.5415 30.5362V30.0714L22.9385 29.9185C23.0238 29.8857 23.0998 29.8326 23.1599 29.7639C23.2201 29.6951 23.2626 29.6127 23.2837 29.5238C23.3659 29.1784 23.5027 28.8483 23.689 28.546C23.7369 28.4682 23.7652 28.3799 23.7713 28.2888C23.7774 28.1976 23.7613 28.1063 23.7242 28.0228L23.5513 27.6335L23.88 27.3048L24.2694 27.4777C24.3529 27.5148 24.4442 27.531 24.5353 27.5249C24.6265 27.5188 24.7147 27.4905 24.7925 27.4426C25.0948 27.2563 25.4249 27.1195 25.7703 27.0372C25.8592 27.0161 25.9416 26.9736 26.0103 26.9135C26.0791 26.8533 26.1322 26.7774 26.165 26.6921L26.3178 26.295H26.7827L26.9356 26.6921C26.9685 26.7773 27.0216 26.8533 27.0904 26.9134C27.1591 26.9735 27.2415 27.0159 27.3304 27.0371ZM25.9317 25.1699C25.8181 25.1699 25.7071 25.2043 25.6133 25.2687C25.5196 25.333 25.4476 25.4242 25.4068 25.5303L25.2171 26.023C24.958 26.1036 24.7067 26.2078 24.4666 26.3342L23.9837 26.1198C23.8798 26.0736 23.7644 26.06 23.6526 26.0808C23.5409 26.1015 23.438 26.1557 23.3577 26.2361L22.4828 27.111C22.4024 27.1913 22.3482 27.2942 22.3275 27.4059C22.3067 27.5177 22.3203 27.6331 22.3664 27.737L22.5808 28.2198C22.4543 28.46 22.3502 28.7113 22.2696 28.9705L21.777 29.1601C21.6952 29.1917 21.6218 29.242 21.563 29.3072C19.7862 29.3074 17.2797 29.3091 14.0436 29.3122C13.8005 28.2231 12.8997 27.5172 12.0238 26.8317C10.7603 25.8429 9.66901 24.9889 10.0692 23.0527L10.2434 22.2102C10.5332 20.8081 11.7354 19.8289 13.1671 19.8289H16.7898C17.4731 19.8289 18.029 20.3848 18.029 21.0681C18.029 21.4019 17.8957 21.7048 17.6803 21.9279C17.6721 21.9358 17.6642 21.9439 17.6565 21.9523C17.4328 22.1716 17.127 22.3073 16.7898 22.3073H12.8859C12.7367 22.3073 12.5936 22.3666 12.4881 22.4721C12.3826 22.5776 12.3234 22.7207 12.3234 22.8698C12.3234 23.019 12.3826 23.1621 12.4881 23.2676C12.5936 23.3731 12.7367 23.4323 12.8859 23.4323H13.9048C17.1803 23.4323 17.2983 25.8606 17.3618 27.1652L17.3637 27.2059C17.3666 27.2802 17.3842 27.3531 17.4155 27.4206C17.4468 27.488 17.4911 27.5486 17.546 27.5988C17.6008 27.6489 17.665 27.6878 17.735 27.713C17.8049 27.7382 17.8791 27.7493 17.9534 27.7457C18.0276 27.742 18.1004 27.7237 18.1675 27.6918C18.2346 27.6598 18.2948 27.6149 18.3444 27.5596C18.3941 27.5043 18.4323 27.4396 18.4568 27.3695C18.4813 27.2993 18.4917 27.225 18.4873 27.1508L18.4854 27.1105C18.4518 26.4201 18.3956 25.2647 17.8077 24.241C17.6251 23.9231 17.4068 23.6441 17.154 23.4042C17.6023 23.3345 18.009 23.1381 18.3371 22.8533C18.9685 22.715 19.4929 22.3077 19.7913 21.7631C20.1739 22.0588 20.6438 22.219 21.1273 22.2185C21.7734 22.2185 22.3553 21.9374 22.7568 21.4911C23.1584 21.9374 23.7402 22.2185 24.3863 22.2185C24.8172 22.2193 25.2386 22.092 25.5968 21.8526C25.8147 23.127 25.9808 24.2081 26.0093 25.1698L25.9317 25.1699ZM30.7592 22.7527C29.1238 22.7528 27.6576 21.7785 27.024 20.2704C26.9859 20.1798 26.9247 20.1008 26.8465 20.0413C26.7682 19.9818 26.6758 19.9438 26.5783 19.9312V17.4751C26.6758 17.4625 26.7683 17.4246 26.8465 17.365C26.9247 17.3055 26.9859 17.2265 27.024 17.1359C27.6576 15.6279 29.1237 14.6536 30.7592 14.6536C31.96 14.6536 33.0691 15.1747 33.8275 16.0577H30.2379C30.1391 16.0577 30.0421 16.0837 29.9566 16.1331C29.8711 16.1824 29.8001 16.2534 29.7508 16.3389L28.5482 18.4219C28.4988 18.5074 28.4728 18.6044 28.4728 18.7031C28.4728 18.8019 28.4988 18.8989 28.5482 18.9844L29.7508 21.0673C29.8002 21.1528 29.8712 21.2238 29.9567 21.2732C30.0422 21.3226 30.1392 21.3486 30.2379 21.3486H33.8276C33.0691 22.2316 31.96 22.7527 30.7592 22.7527ZM16.3481 32.3751C16.3481 32.8039 16.0005 33.1515 15.5717 33.1515C15.1429 33.1515 14.7954 32.8039 14.7954 32.3751C14.7954 31.9463 15.143 31.5987 15.5717 31.5987C16.0005 31.5987 16.3481 31.9463 16.3481 32.3751ZM23.5 30.3037C23.5 31.9857 24.8684 33.354 26.5504 33.354C28.2324 33.354 29.6008 31.9857 29.6008 30.3037C29.6008 28.6217 28.2324 27.2533 26.5504 27.2533C24.8685 27.2533 23.5 28.6217 23.5 30.3037ZM28.4758 30.3037C28.4758 31.3654 27.6121 32.229 26.5504 32.229C25.4888 32.229 24.625 31.3654 24.625 30.3037C24.625 29.242 25.4888 28.3783 26.5504 28.3783C27.6121 28.3783 28.4758 29.2421 28.4758 30.3037ZM24.9122 9.39115L26.1156 10.262L25.6539 11.6738C25.5892 11.8703 25.5887 12.0822 25.6525 12.279C25.7162 12.4758 25.8409 12.6472 26.0085 12.7685C26.1756 12.8903 26.3772 12.9559 26.584 12.9557C26.7908 12.9554 26.9922 12.8895 27.159 12.7673L28.3591 11.8919L29.559 12.7672C29.7262 12.8896 29.9279 12.9556 30.1351 12.9556C30.3364 12.9556 30.5378 12.8932 30.7097 12.7683C30.8772 12.647 31.0019 12.4756 31.0656 12.2788C31.1293 12.0821 31.1288 11.8702 31.0641 11.6737L30.6024 10.262L31.8058 9.39122C31.9736 9.27028 32.0986 9.0991 32.1627 8.90242C32.2268 8.70574 32.2267 8.49377 32.1624 8.29716C32.099 8.10065 31.9748 7.92936 31.8078 7.80799C31.6407 7.68662 31.4394 7.62145 31.2329 7.62188H31.2309L29.7456 7.62476L29.2893 6.2112C29.2262 6.0142 29.102 5.8424 28.9347 5.72065C28.7675 5.59889 28.5659 5.53351 28.359 5.53395C28.1522 5.53354 27.9506 5.59894 27.7833 5.72067C27.6161 5.84241 27.492 6.01417 27.4288 6.21113L26.9726 7.62469L25.4872 7.62181H25.4852C25.2787 7.62139 25.0774 7.68657 24.9103 7.80795C24.7433 7.92933 24.6191 8.10064 24.5556 8.29716C24.4913 8.49375 24.4912 8.70571 24.5553 8.90238C24.6194 9.09905 24.7444 9.27023 24.9122 9.39115ZM27.078 8.7499H27.0799C27.2867 8.75036 27.4884 8.68499 27.6556 8.56325C27.8228 8.44151 27.947 8.26971 28.0101 8.07272L28.3591 6.99167L28.708 8.07272C28.7711 8.26971 28.8953 8.4415 29.0625 8.56324C29.2297 8.68499 29.4313 8.75036 29.6382 8.7499H29.64L30.776 8.74772L29.8557 9.41372C29.6875 9.53479 29.5624 9.7063 29.4984 9.90334C29.4343 10.1004 29.4348 10.3127 29.4997 10.5095L29.8528 11.5891L28.9351 10.9197C28.768 10.7972 28.5662 10.7312 28.359 10.7312C28.1518 10.7312 27.95 10.7972 27.7829 10.9197L26.8652 11.5891L27.2182 10.5095C27.2831 10.3127 27.2836 10.1004 27.2195 9.90334C27.1555 9.7063 27.0304 9.53479 26.8622 9.41372L25.9419 8.74772L27.078 8.7499ZM7.44833 9.39115L8.65173 10.262L8.18999 11.6738C8.12535 11.8703 8.12487 12.0822 8.18861 12.279C8.25235 12.4758 8.37701 12.6472 8.54458 12.7684C8.71142 12.89 8.91255 12.9556 9.11903 12.9557C9.32097 12.9557 9.5229 12.8929 9.6951 12.7673L10.8951 11.8919L12.0951 12.7672C12.2619 12.8895 12.4634 12.9555 12.6703 12.9557C12.8771 12.9559 13.0787 12.8902 13.2458 12.7683C13.4134 12.647 13.538 12.4756 13.6017 12.2788C13.6654 12.0821 13.6649 11.8702 13.6003 11.6737L13.1386 10.262L14.342 9.39115C14.5098 9.27022 14.6348 9.09903 14.6989 8.90235C14.763 8.70566 14.7629 8.49369 14.6985 8.29709C14.6351 8.10059 14.5109 7.92931 14.3439 7.80795C14.1768 7.68658 13.9756 7.6214 13.7691 7.62181H13.767L12.2817 7.62469L11.8254 6.21113C11.7623 6.01414 11.6381 5.84236 11.4709 5.72062C11.3036 5.59888 11.102 5.5335 10.8951 5.53395C10.6883 5.53356 10.4867 5.59896 10.3195 5.72069C10.1523 5.84243 10.0282 6.01418 9.96503 6.21113L9.5087 7.62469L8.02342 7.62181H8.02138C7.81488 7.62139 7.61358 7.68657 7.44652 7.80795C7.27946 7.92933 7.15527 8.10064 7.09185 8.29716C7.02744 8.49374 7.02727 8.70571 7.09136 8.9024C7.15545 9.09908 7.28047 9.27026 7.44833 9.39115ZM9.61403 8.7499H9.61593C9.82277 8.75037 10.0244 8.685 10.1916 8.56326C10.3589 8.44151 10.483 8.26971 10.5461 8.07272L10.8951 6.99167L11.244 8.07265C11.3071 8.26968 11.4312 8.44153 11.5985 8.56329C11.7657 8.68505 11.9674 8.75041 12.1742 8.7499H12.1761L13.312 8.74772L12.3917 9.41372C12.2236 9.53479 12.0984 9.7063 12.0344 9.90334C11.9704 10.1004 11.9709 10.3127 12.0357 10.5095L12.3888 11.5891L11.4711 10.9197C11.304 10.7972 11.1022 10.7311 10.8951 10.7311C10.6879 10.7311 10.4861 10.7972 10.319 10.9197L9.40119 11.5891L9.7543 10.5095C9.81915 10.3127 9.8196 10.1004 9.75559 9.90335C9.69157 9.70631 9.56642 9.5348 9.39831 9.41372L8.47799 8.74772L9.61403 8.7499ZM16.1802 4.41978L17.3836 5.2906L16.9219 6.70247C16.8573 6.89894 16.8568 7.11087 16.9205 7.30763C16.9843 7.50439 17.1089 7.67578 17.2765 7.79703C17.4433 7.91867 17.6445 7.98426 17.851 7.98434C18.0529 7.98434 18.2549 7.92148 18.4271 7.7959L19.6271 6.92051L20.827 7.7959C20.9939 7.91814 21.1954 7.98413 21.4023 7.98432C21.6092 7.98451 21.8107 7.91889 21.9778 7.79696C22.1454 7.67571 22.27 7.50432 22.3337 7.30757C22.3974 7.11082 22.3969 6.8989 22.3322 6.70247L21.8706 5.29067L23.0739 4.41992C23.2417 4.29896 23.3668 4.12775 23.4309 3.93105C23.495 3.73434 23.4948 3.52234 23.4305 3.32571C23.367 3.12925 23.2428 2.958 23.0758 2.83665C22.9088 2.71531 22.7075 2.65013 22.501 2.6505H22.499L21.0137 2.65338L20.5574 1.23982C20.4942 1.04281 20.37 0.871003 20.2028 0.749242C20.0355 0.627481 19.8338 0.562082 19.627 0.562502C19.4201 0.562121 19.2185 0.627523 19.0513 0.749255C18.8841 0.870986 18.76 1.04274 18.6968 1.23968L18.2405 2.65324L16.7552 2.65036H16.7532C16.5467 2.64995 16.3454 2.71514 16.1783 2.83653C16.0112 2.95792 15.887 3.12924 15.8236 3.32578C15.7593 3.52238 15.7592 3.73434 15.8233 3.93099C15.8874 4.12765 16.0124 4.29883 16.1802 4.41978ZM18.346 3.77846H18.3479C18.5547 3.77892 18.7564 3.71355 18.9236 3.5918C19.0909 3.47006 19.215 3.29827 19.2781 3.10128L19.6271 2.02022L19.9761 3.10128C20.0392 3.29826 20.1633 3.47006 20.3305 3.5918C20.4977 3.71354 20.6994 3.77891 20.9062 3.77846H20.908L22.044 3.77628L21.1238 4.44221C20.9556 4.56328 20.8305 4.73479 20.7665 4.93183C20.7024 5.12886 20.7029 5.34118 20.7677 5.53796L21.1208 6.6176L20.203 5.94816C20.0359 5.82569 19.8341 5.75966 19.627 5.75966C19.4198 5.75966 19.218 5.82569 19.0509 5.94816L18.1332 6.6176L18.4863 5.53789C18.5511 5.34113 18.5515 5.12883 18.4875 4.93181C18.4235 4.73479 18.2984 4.5633 18.1303 4.44221L17.21 3.77621L18.346 3.77846Z" fill="#030303"/>
</g>
<defs>
<clipPath id="clip0_855_2637">
<rect width="36" height="36" fill="white"/>
</clipPath>
</defs>
</svg>
