<svg width="36" height="36" viewBox="0 0 36 36" fill="none" xmlns="http://www.w3.org/2000/svg">
<g clip-path="url(#clip0_855_2646)">
<path d="M34.1587 0H13.9178C13.5107 0 13.1795 0.331172 13.1795 0.738281V2.39055H11.5273C11.1202 2.39055 10.789 2.72173 10.789 3.12884V9.60187L3.04449 13.4724C2.6248 13.6821 2.36408 14.1038 2.36408 14.573V18.6311C2.36408 20.0078 2.52692 21.2363 2.837 22.3503C1.77669 23.2645 1.10352 24.616 1.10352 26.1226C1.10352 28.8694 3.33826 31.1041 6.08509 31.1041C6.71737 31.1044 7.34386 30.9836 7.93072 30.7482V33.5768C7.93072 33.8909 8.1162 34.1762 8.40329 34.3036C8.54396 34.3659 8.69967 34.3861 8.85158 34.3618C9.0035 34.3374 9.14511 34.2696 9.25927 34.1665L11.1931 32.417L13.1271 34.1665C13.2412 34.2696 13.3828 34.3375 13.5348 34.3618C13.6867 34.3861 13.8424 34.3658 13.983 34.3034C14.1237 34.241 14.2432 34.1391 14.3271 34.0101C14.4109 33.8812 14.4556 33.7306 14.4556 33.5768V29.4212H18.4221C18.7134 29.4212 18.9495 29.1851 18.9495 28.8939C18.9495 28.6026 18.7134 28.3665 18.4221 28.3665H15.5126C16.6302 27.4099 17.5635 26.3839 18.2859 25.2258H27.5286C27.8199 25.2258 28.0559 24.9897 28.0559 24.6985C28.0559 24.4072 27.8199 24.1711 27.5286 24.1711H18.8661C19.077 23.7319 19.2582 23.2791 19.4086 22.8156H21.1643C21.4556 22.8156 21.6916 22.5795 21.6916 22.2883C21.6916 21.9971 21.4556 21.7609 21.1643 21.7609H19.6975C19.7945 21.3269 19.8699 20.8754 19.9237 20.4055H27.5285C27.8198 20.4055 28.0558 20.1694 28.0558 19.8781C28.0558 19.5869 27.8198 19.3508 27.5285 19.3508H20.0051C20.0153 19.1149 20.022 18.876 20.022 18.631V17.9953H27.5285C27.8198 17.9953 28.0558 17.7592 28.0558 17.4679C28.0558 17.1767 27.8198 16.9406 27.5285 16.9406H20.0221V15.5851H22.7112C23.0025 15.5851 23.2385 15.349 23.2385 15.0578C23.2385 14.7665 23.0025 14.5304 22.7112 14.5304H20.0206C20.0053 14.0785 19.7486 13.6756 19.3417 13.4723L18.7468 13.1749H27.5285C27.8198 13.1749 28.0558 12.9388 28.0558 12.6476C28.0558 12.3564 27.8198 12.1203 27.5285 12.1203H16.6364L11.8436 9.72492V3.44524H31.4517V7.38281C31.4517 7.67405 31.6878 7.91016 31.9791 7.91016C32.2704 7.91016 32.5064 7.67405 32.5064 7.38281V3.12884C32.5064 2.72173 32.1752 2.39055 31.7681 2.39055H14.2342V1.05469H33.8424V25.976H32.5064V9.84375C32.5064 9.55252 32.2704 9.31641 31.9791 9.31641C31.6878 9.31641 31.4517 9.55252 31.4517 9.84375V28.3666H20.8831C20.5917 28.3666 20.3557 28.6027 20.3557 28.8939C20.3557 29.1852 20.5917 29.4213 20.8831 29.4213H31.7681C32.1752 29.4213 32.5064 29.0901 32.5064 28.683V27.0307H34.1587C34.5658 27.0307 34.897 26.6996 34.897 26.2924V0.738281C34.897 0.331172 34.5658 0 34.1587 0ZM2.1582 26.1226C2.1582 23.9573 3.91981 22.1957 6.08509 22.1957C8.25036 22.1957 10.012 23.9573 10.012 26.1226C10.012 28.2878 8.25036 30.0495 6.08509 30.0495C3.91981 30.0495 2.1582 28.2878 2.1582 26.1226ZM11.7265 31.4774C11.5805 31.3446 11.3904 31.2711 11.1931 31.2711C10.9958 31.2711 10.8056 31.3446 10.6597 31.4774L8.98534 32.992V30.169C10.2444 29.264 11.0666 27.788 11.0666 26.1226C11.0666 25.6681 11.0042 25.2281 10.8896 24.8093C10.9902 24.8151 11.0911 24.8191 11.1931 24.8191C11.9542 24.8195 12.7068 24.6581 13.4008 24.3455V32.992L11.7265 31.4774ZM18.9674 14.573V18.6311C18.9674 21.408 18.275 23.6027 16.7886 25.5378C16.1681 26.3455 15.4151 27.1066 14.4555 27.8827V23.7191C15.7546 22.7315 16.5953 21.1708 16.5953 19.4168C16.5953 18.5494 16.3835 17.6854 15.9826 16.9185C15.9178 16.7945 15.8065 16.7014 15.673 16.6595C15.5396 16.6177 15.3949 16.6306 15.271 16.6954C15.147 16.7601 15.0539 16.8715 15.0121 17.005C14.9702 17.1384 14.9831 17.283 15.0479 17.407C15.3748 18.0326 15.5406 18.7089 15.5406 19.4169C15.5406 21.8141 13.5904 23.7644 11.1931 23.7644C10.9342 23.7644 10.6806 23.7412 10.4341 23.6974C9.76756 22.5068 8.62688 21.6168 7.26908 21.2844C6.98978 20.7015 6.84503 20.0633 6.84552 19.4169C6.84552 17.0196 8.79577 15.0693 11.1931 15.0693C12.0381 15.0684 12.8649 15.3149 13.5715 15.7783C13.6294 15.8162 13.6942 15.8424 13.7623 15.8553C13.8303 15.8682 13.9002 15.8675 13.968 15.8534C14.0358 15.8393 14.1002 15.8119 14.1574 15.7729C14.2146 15.7339 14.2636 15.684 14.3015 15.6261C14.3395 15.5682 14.3656 15.5034 14.3785 15.4353C14.3914 15.3673 14.3908 15.2974 14.3767 15.2296C14.3625 15.1618 14.3352 15.0974 14.2962 15.0402C14.2572 14.983 14.2073 14.934 14.1494 14.8961C13.2692 14.3194 12.2469 14.0146 11.1931 14.0146C8.21429 14.0146 5.79083 16.438 5.79083 19.4169C5.79047 20.0033 5.88624 20.5859 6.07433 21.1414C5.26841 21.1423 4.47491 21.34 3.7628 21.7174C3.53239 20.7684 3.41877 19.7474 3.41877 18.6311V14.5731C3.41877 14.5061 3.45596 14.4458 3.51594 14.4159L11.193 10.579L18.8701 14.4159C18.8994 14.4304 18.9241 14.4528 18.9413 14.4805C18.9585 14.5083 18.9675 14.5404 18.9674 14.573Z" fill="#030303"/>
<path d="M15.2403 10.2376C15.2403 10.3775 15.2959 10.5116 15.3948 10.6105C15.4937 10.7094 15.6278 10.765 15.7677 10.765H27.5293C27.8206 10.765 28.0567 10.5288 28.0567 10.2376C28.0567 9.94637 27.8206 9.71027 27.5293 9.71027H15.7677C15.6984 9.71026 15.6298 9.72389 15.5658 9.75039C15.5019 9.77689 15.4437 9.81573 15.3947 9.8647C15.3458 9.91367 15.3069 9.97181 15.2804 10.0358C15.2539 10.0998 15.2403 10.1684 15.2403 10.2376ZM27.5293 14.5305H24.6807C24.3894 14.5305 24.1533 14.7666 24.1533 15.0579C24.1533 15.3491 24.3894 15.5852 24.6807 15.5852H27.5293C27.5986 15.5852 27.6671 15.5716 27.7311 15.5451C27.7951 15.5186 27.8532 15.4797 27.9022 15.4307C27.9512 15.3818 27.99 15.3236 28.0165 15.2597C28.043 15.1957 28.0566 15.1271 28.0566 15.0578C28.0566 14.9886 28.043 14.92 28.0165 14.856C27.99 14.7921 27.9511 14.7339 27.9021 14.685C27.8532 14.636 27.795 14.5972 27.7311 14.5707C27.6671 14.5442 27.5985 14.5305 27.5293 14.5305ZM27.5293 21.761H23.0635C22.7722 21.761 22.5361 21.9971 22.5361 22.2883C22.5361 22.5796 22.7722 22.8157 23.0635 22.8157H27.5293C27.5986 22.8157 27.6671 22.802 27.7311 22.7755C27.7951 22.749 27.8532 22.7102 27.9022 22.6612C27.9512 22.6122 27.99 22.5541 28.0165 22.4901C28.043 22.4261 28.0566 22.3575 28.0566 22.2883C28.0566 22.219 28.043 22.1505 28.0165 22.0865C27.99 22.0225 27.9511 21.9644 27.9021 21.9154C27.8532 21.8664 27.795 21.8276 27.7311 21.8011C27.6671 21.7746 27.5985 21.761 27.5293 21.761ZM25.2637 7.28357C25.555 7.28357 25.7911 7.04746 25.7911 6.75623C25.7911 6.46499 25.555 6.22888 25.2637 6.22888H18.0332C17.8933 6.22888 17.7592 6.28444 17.6603 6.38334C17.5614 6.48223 17.5059 6.61637 17.5059 6.75623C17.5059 6.89609 17.5614 7.03022 17.6603 7.12911C17.7592 7.22801 17.8933 7.28357 18.0332 7.28357H25.2637ZM12.8214 18.1908L10.9418 20.0704L9.71199 18.8406C9.6131 18.7417 9.47898 18.6861 9.33913 18.6861C9.19928 18.6861 9.06515 18.7417 8.96626 18.8406C8.86737 18.9394 8.81182 19.0736 8.81182 19.2134C8.81182 19.3533 8.86737 19.4874 8.96626 19.5863L10.569 21.189C10.6719 21.292 10.8069 21.3435 10.9418 21.3435C11.0768 21.3435 11.2118 21.292 11.3147 21.189L13.5672 18.9365C13.6654 18.8375 13.7203 18.7036 13.72 18.5641C13.7197 18.4247 13.6642 18.291 13.5656 18.1924C13.4669 18.0938 13.3333 18.0383 13.1938 18.038C13.0544 18.0377 12.9205 18.0926 12.8214 18.1908ZM20.8724 31.8751L19.7919 31.7181L19.3088 30.739L19.3087 30.739C19.2435 30.6056 19.142 30.4932 19.0159 30.4149C18.8898 30.3365 18.7442 30.2952 18.5957 30.2958C18.4472 30.2952 18.3016 30.3365 18.1754 30.4149C18.0493 30.4933 17.9479 30.6056 17.8827 30.739L17.3995 31.7181L16.319 31.8751C16.172 31.8959 16.0338 31.9577 15.9202 32.0534C15.8067 32.1491 15.7224 32.2748 15.6771 32.4162C15.6307 32.5573 15.6249 32.7085 15.6605 32.8527C15.6961 32.9969 15.7716 33.1281 15.8783 33.2313L16.6601 33.9935L16.4756 35.0695C16.4499 35.2158 16.466 35.3663 16.5219 35.5039C16.5779 35.6414 16.6714 35.7604 16.7919 35.8472C16.9274 35.9463 17.0908 35.9998 17.2586 36C17.3849 36 17.512 35.9695 17.6293 35.9078L18.5957 35.3997L19.5621 35.9078C19.6932 35.9774 19.8414 36.0086 19.9894 35.9979C20.1375 35.9872 20.2796 35.935 20.3994 35.8472C20.5199 35.7604 20.6135 35.6414 20.6694 35.5039C20.7254 35.3663 20.7414 35.2158 20.7158 35.0695L20.5312 33.9935L21.3131 33.2313C21.4198 33.1281 21.4952 32.9969 21.5308 32.8527C21.5664 32.7086 21.5606 32.5573 21.5142 32.4163C21.4689 32.2749 21.3847 32.1491 21.2711 32.0534C21.1576 31.9577 21.0194 31.8959 20.8724 31.8751ZM19.6974 33.3335C19.605 33.4235 19.5359 33.5346 19.4961 33.6572C19.4563 33.7798 19.4469 33.9103 19.4687 34.0373L19.5874 34.7296L18.9658 34.4028C18.8517 34.3428 18.7246 34.3114 18.5957 34.3113C18.4668 34.3113 18.3398 34.3427 18.2256 34.4027L17.604 34.7296L17.7227 34.0373C17.7445 33.9103 17.7351 33.7798 17.6952 33.6572C17.6554 33.5346 17.5863 33.4235 17.494 33.3335L16.991 32.8433L17.6861 32.7422C17.8136 32.7237 17.9348 32.6744 18.0391 32.5986C18.1434 32.5229 18.2277 32.4228 18.2848 32.3072L18.5956 31.6774L18.9064 32.3072C18.9634 32.4229 19.0478 32.5229 19.1521 32.5987C19.2564 32.6745 19.3776 32.7237 19.5052 32.7422L20.2002 32.8433L19.6974 33.3335ZM27.3978 31.8751L26.3173 31.7181L25.8342 30.739L25.8342 30.739C25.7689 30.6056 25.6675 30.4932 25.5414 30.4149C25.4152 30.3365 25.2696 30.2952 25.1211 30.2958C24.9726 30.2952 24.827 30.3365 24.7009 30.4149C24.5748 30.4933 24.4733 30.6056 24.4081 30.739L23.925 31.7181L22.8444 31.8751C22.5427 31.919 22.2968 32.1263 22.2026 32.4163C22.1084 32.7063 22.1855 33.0185 22.4038 33.2313L23.1856 33.9935L23.0011 35.0695C22.9494 35.3699 23.0706 35.6679 23.3172 35.8472C23.5638 36.0265 23.8847 36.0497 24.1547 35.9078L25.121 35.3997L26.0874 35.9078C26.2017 35.9681 26.3289 35.9998 26.4582 36C26.6223 36 26.7853 35.9485 26.9248 35.8472C27.0453 35.7604 27.1388 35.6414 27.1948 35.5039C27.2507 35.3663 27.2668 35.2158 27.2411 35.0695L27.0565 33.9935L27.8384 33.2313C27.9451 33.1281 28.0206 32.9969 28.0562 32.8527C28.0917 32.7086 28.086 32.5573 28.0396 32.4163C27.9943 32.2749 27.91 32.1491 27.7965 32.0534C27.683 31.9577 27.5448 31.8959 27.3978 31.8751ZM26.2228 33.3335C26.1304 33.4235 26.0614 33.5346 26.0215 33.6572C25.9817 33.7798 25.9723 33.9103 25.9941 34.0373L26.1128 34.7296L25.4912 34.4028C25.3771 34.3428 25.2501 34.3114 25.1211 34.3113C24.9922 34.3113 24.8652 34.3427 24.7511 34.4027L24.1294 34.7296L24.2481 34.0373C24.2699 33.9103 24.2605 33.7798 24.2206 33.6572C24.1808 33.5346 24.1117 33.4235 24.0194 33.3335L23.5164 32.8433L24.2115 32.7422C24.3391 32.7237 24.4603 32.6745 24.5646 32.5987C24.6689 32.5229 24.7532 32.4229 24.8103 32.3072L25.121 31.6774L25.4319 32.3072C25.4889 32.4229 25.5733 32.5229 25.6776 32.5987C25.7819 32.6745 25.9031 32.7237 26.0307 32.7422L26.7257 32.8433L26.2228 33.3335ZM33.9233 31.8751L32.8428 31.7181L32.3597 30.739L32.3596 30.739C32.2944 30.6056 32.193 30.4933 32.0669 30.4149C31.9408 30.3365 31.7952 30.2952 31.6467 30.2958C31.4982 30.2952 31.3525 30.3365 31.2264 30.4149C31.1003 30.4933 30.9988 30.6056 30.9336 30.739L30.4505 31.7181L29.3699 31.8751C29.0682 31.919 28.8223 32.1263 28.7281 32.4163C28.6339 32.7063 28.711 33.0186 28.9292 33.2313L29.7111 33.9935L29.5265 35.0695C29.5008 35.2157 29.5169 35.3662 29.5728 35.5038C29.6287 35.6413 29.7223 35.7604 29.8427 35.8472C29.9782 35.9463 30.1416 35.9998 30.3094 36C30.4358 36 30.5628 35.9695 30.6802 35.9078L31.6465 35.3997L32.6129 35.9078C32.7441 35.9774 32.8922 36.0086 33.0403 35.9979C33.1884 35.9872 33.3305 35.935 33.4503 35.8472C33.5707 35.7604 33.6643 35.6414 33.7203 35.5039C33.7762 35.3663 33.7923 35.2158 33.7666 35.0695L33.582 33.9935L34.364 33.2313C34.4707 33.128 34.5461 32.9968 34.5817 32.8526C34.6172 32.7085 34.6115 32.5572 34.565 32.4162C34.5197 32.2748 34.4355 32.1491 34.322 32.0534C34.2084 31.9576 34.0703 31.8959 33.9233 31.8751ZM32.7485 33.3333C32.6561 33.4233 32.5869 33.5344 32.5471 33.657C32.5072 33.7797 32.4978 33.9102 32.5196 34.0373L32.6383 34.7296L32.0167 34.4028C31.9025 34.3428 31.7755 34.3115 31.6466 34.3115C31.5176 34.3114 31.3906 34.3428 31.2765 34.4027L30.6549 34.7296L30.7736 34.0373C30.7954 33.9103 30.786 33.7798 30.7461 33.6572C30.7063 33.5346 30.6372 33.4235 30.5449 33.3335L30.0419 32.8433L30.737 32.7422C30.8646 32.7237 30.9857 32.6744 31.09 32.5986C31.1943 32.5228 31.2787 32.4228 31.3358 32.3072L31.6466 31.6774L31.9574 32.3072C32.0144 32.4229 32.0987 32.5229 32.2031 32.5987C32.3074 32.6745 32.4286 32.7237 32.5562 32.7422L33.2512 32.8433L32.7485 33.3333ZM8.1403 24.9257L7.19663 24.7886L6.77462 23.9334C6.64426 23.6693 6.38038 23.5052 6.08584 23.5052C5.7913 23.5052 5.52734 23.6693 5.39706 23.9334L4.97504 24.7886L4.03145 24.9257C3.88942 24.9458 3.75593 25.0054 3.64626 25.0979C3.53659 25.1903 3.45518 25.3118 3.41136 25.4484C3.36648 25.5846 3.36091 25.7308 3.39528 25.87C3.42966 26.0093 3.50258 26.1361 3.6057 26.2358L4.28858 26.9015L4.12742 27.8413C4.10263 27.9826 4.11814 28.128 4.17219 28.2609C4.22623 28.3938 4.31662 28.5087 4.433 28.5926C4.56385 28.6883 4.72169 28.7399 4.88377 28.7401C5.00863 28.74 5.13156 28.7094 5.24195 28.651L6.08598 28.2073L6.93001 28.651C7.19073 28.7882 7.50066 28.7657 7.73895 28.5926C7.97724 28.4195 8.09431 28.1316 8.04453 27.8413L7.88338 26.9015L8.56625 26.2358C8.77719 26.0302 8.85165 25.7285 8.76059 25.4484C8.71668 25.3118 8.63522 25.1904 8.52552 25.098C8.41582 25.0055 8.28232 24.9459 8.1403 24.9257ZM7.03906 26.2514C6.94987 26.3383 6.88316 26.4456 6.84467 26.5641C6.80619 26.6825 6.79708 26.8085 6.81814 26.9313L6.90666 27.4474L6.44323 27.2037C6.333 27.1458 6.21034 27.1155 6.0858 27.1155C5.96127 27.1155 5.8386 27.1458 5.72837 27.2037L5.26494 27.4474L5.35346 26.9313C5.37452 26.8085 5.36541 26.6825 5.32693 26.5641C5.28844 26.4457 5.22173 26.3384 5.13254 26.2515L4.75756 25.886L5.27548 25.8107C5.39877 25.7929 5.51587 25.7453 5.61666 25.6721C5.71746 25.5989 5.79892 25.5022 5.85402 25.3905L6.08577 24.921L6.31745 25.3904C6.37252 25.5021 6.45395 25.5987 6.55472 25.672C6.65549 25.7452 6.77256 25.7928 6.89584 25.8106L7.41397 25.8859L7.03906 26.2514Z" fill="#030303"/>
</g>
<defs>
<clipPath id="clip0_855_2646">
<rect width="36" height="36" fill="white"/>
</clipPath>
</defs>
</svg>
