<svg width="36" height="36" viewBox="0 0 36 36" fill="none" xmlns="http://www.w3.org/2000/svg">
<g clip-path="url(#clip0_855_2653)">
<path d="M24.207 13.1534C24.1621 13.0936 24.1057 13.0434 24.0411 13.0056C23.9765 12.9679 23.9051 12.9434 23.8309 12.9336C23.7568 12.9238 23.6814 12.9288 23.6092 12.9485C23.5371 12.9682 23.4696 13.0021 23.4106 13.0482C23.3517 13.0942 23.3026 13.1516 23.2661 13.2169C23.2296 13.2822 23.2066 13.3542 23.1982 13.4285C23.1899 13.5028 23.1964 13.5781 23.2175 13.6498C23.2386 13.7216 23.2738 13.7884 23.3211 13.8464C24.2518 15.0304 24.7552 16.494 24.7498 17.9999C24.7496 19.4988 24.2505 20.9549 23.3312 22.1388C22.4119 23.3226 21.1248 24.1668 19.6727 24.5383C18.2206 24.9098 16.6862 24.7874 15.3113 24.1904C13.9365 23.5934 12.7995 22.5558 12.0795 21.2412C11.3595 19.9266 11.0976 18.4097 11.335 16.9298C11.5724 15.4499 12.2956 14.091 13.3907 13.0676C14.4857 12.0441 15.8902 11.4142 17.3828 11.2772C18.8753 11.1401 20.3711 11.5038 21.6341 12.3108C21.7599 12.3912 21.9124 12.4184 22.0582 12.3863C22.204 12.3542 22.3311 12.2656 22.4115 12.1398C22.4919 12.0141 22.5191 11.8615 22.487 11.7157C22.4549 11.5699 22.3663 11.4428 22.2405 11.3624C20.5765 10.2998 18.5743 9.90049 16.63 10.2436C14.6857 10.5866 12.941 11.647 11.7412 13.215C10.5414 14.7829 9.97383 16.7442 10.1509 18.7105C10.328 20.6769 11.2368 22.5052 12.6974 23.8335C14.1581 25.1619 16.0642 25.8935 18.0385 25.8837C20.0128 25.8739 21.9115 25.1233 23.3588 23.7804C24.8062 22.4376 25.6967 20.6004 25.8542 18.6323C26.0117 16.6643 25.4246 14.7088 24.2093 13.1529L24.207 13.1534Z" fill="#030303"/>
<path d="M26.5738 24.1875C26.4824 24.0939 26.4261 23.9717 26.4144 23.8414C26.4027 23.7111 26.4364 23.5808 26.5097 23.4725C27.1106 22.5427 27.5538 21.52 27.8214 20.4457L29.2699 21.1702C29.2637 21.2383 29.2491 21.3046 29.2491 21.3744C29.2475 21.9145 29.4396 22.4372 29.7905 22.8477C30.1415 23.2582 30.628 23.5292 31.1618 23.6115C31.6955 23.6938 32.2411 23.582 32.6995 23.2963C33.1578 23.0107 33.4985 22.5701 33.6597 22.0547C33.8209 21.5392 33.7919 20.9831 33.5779 20.4872C33.364 19.9913 32.9793 19.5886 32.4938 19.3521C32.0082 19.1157 31.454 19.0612 30.9317 19.1986C30.4094 19.336 29.9537 19.6561 29.6473 20.1009L28.0386 19.2965C28.1452 18.4674 28.1503 17.6283 28.0537 16.7979C27.8723 15.2779 27.3423 13.8203 26.5052 12.5386L27.7804 11.2635C28.7937 12.0735 30.0788 12.4648 31.3716 12.3568C32.6645 12.2489 33.8669 11.65 34.732 10.6832C35.597 9.71635 36.0589 8.45496 36.0229 7.15812C35.9869 5.86129 35.4557 4.62748 34.5383 3.71012C33.621 2.79277 32.3872 2.26153 31.0903 2.22552C29.7935 2.18951 28.5321 2.65147 27.5653 3.5165C26.5984 4.38154 25.9995 5.58397 25.8916 6.87681C25.7837 8.16964 26.1749 9.45473 26.985 10.4681L25.8369 11.6161C24.2084 9.60362 21.8692 8.29336 19.3024 7.95596C19.0549 7.92502 18.8079 7.90646 18.5616 7.89296V6.67008C19.0918 6.53318 19.5539 6.20758 19.8613 5.75433C20.1686 5.30108 20.3001 4.75129 20.2311 4.20802C20.1621 3.66475 19.8973 3.1653 19.4864 2.80328C19.0755 2.44126 18.5467 2.24153 17.9991 2.24153C17.4514 2.24153 16.9226 2.44126 16.5117 2.80328C16.1008 3.1653 15.836 3.66475 15.767 4.20802C15.698 4.75129 15.8295 5.30108 16.1368 5.75433C16.4442 6.20758 16.9063 6.53318 17.4366 6.67008V7.89352C15.1422 8.01555 12.9587 8.91912 11.2491 10.454L9.01368 8.21865C9.82373 7.20529 10.215 5.92021 10.1071 4.62737C9.99915 3.33453 9.40026 2.1321 8.43342 1.26706C7.46657 0.402028 6.20518 -0.0599306 4.90835 -0.0239215C3.61151 0.0120876 2.3777 0.543331 1.46034 1.46068C0.542991 2.37804 0.0117478 3.61185 -0.0242613 4.90869C-0.0602704 6.20552 0.401689 7.46691 1.26672 8.43376C2.13176 9.4006 3.33419 9.99949 4.62703 10.1074C5.91987 10.2153 7.20495 9.82407 8.21831 9.01402L10.4531 11.25C8.91848 12.9598 8.01478 15.1432 7.89206 17.4375H6.66918C6.53227 16.9072 6.20668 16.4451 5.75343 16.1377C5.30018 15.8304 4.75039 15.6989 4.20712 15.7679C3.66385 15.8369 3.16439 16.1017 2.80238 16.5126C2.44036 16.9235 2.24063 17.4523 2.24063 18C2.24063 18.5476 2.44036 19.0764 2.80238 19.4873C3.16439 19.8983 3.66385 20.163 4.20712 20.232C4.75039 20.301 5.30018 20.1695 5.75343 19.8622C6.20668 19.5548 6.53227 19.0927 6.66918 18.5625H7.89262C7.90556 18.8088 7.92468 19.0558 7.95562 19.3033C8.18188 21.059 8.87214 22.7226 9.95531 24.1228L8.21718 25.8609C7.20383 25.0508 5.91874 24.6596 4.6259 24.7675C3.33307 24.8754 2.13063 25.4743 1.2656 26.4412C0.400564 27.408 -0.0613954 28.6694 -0.0253863 29.9662C0.0106228 31.2631 0.541866 32.4969 1.45922 33.4142C2.37657 34.3316 3.61039 34.8628 4.90722 34.8988C6.20405 34.9348 7.46545 34.4729 8.43229 33.6079C9.39914 32.7428 9.99803 31.5404 10.1059 30.2476C10.2139 28.9547 9.82261 27.6696 9.01256 26.6563L10.6899 24.9789C12.3056 26.6837 14.4654 27.7714 16.797 28.0546C17.4213 28.127 18.0509 28.1422 18.678 28.1002L19.0532 29.601C18.5979 29.891 18.2626 30.3357 18.109 30.8532C17.9554 31.3707 17.9937 31.9263 18.217 32.4178C18.4403 32.9093 18.8334 33.3037 19.3243 33.5284C19.8151 33.7532 20.3705 33.7933 20.8885 33.6412C21.4065 33.4892 21.8522 33.1553 22.1436 32.7009C22.4351 32.2465 22.5528 31.7022 22.475 31.168C22.3972 30.6338 22.1292 30.1457 21.7202 29.7933C21.3113 29.4409 20.7889 29.248 20.2491 29.25C20.208 29.25 20.1697 29.2601 20.1287 29.2623L19.8024 27.9579C21.1096 27.7236 22.357 27.2316 23.4722 26.5106C23.5804 26.4372 23.7106 26.4035 23.8408 26.4152C23.971 26.4269 24.0932 26.4832 24.1866 26.5747L33.1185 35.5055C33.275 35.6624 33.461 35.7868 33.6657 35.8716C33.8705 35.9565 34.0899 36.0001 34.3116 36C34.3571 36 34.4027 36 34.4482 35.9943C34.6932 35.9741 34.9307 35.9008 35.1444 35.7795C35.3582 35.6581 35.5429 35.4917 35.6857 35.2918C35.9142 34.9549 36.0168 34.5483 35.9757 34.1433C35.9345 33.7384 35.7523 33.3608 35.4607 33.0766L26.5738 24.1875ZM31.4991 20.25C31.7216 20.25 31.9391 20.3159 32.1241 20.4396C32.3091 20.5632 32.4533 20.7389 32.5384 20.9444C32.6236 21.15 32.6458 21.3762 32.6024 21.5944C32.559 21.8127 32.4519 22.0131 32.2946 22.1705C32.1372 22.3278 31.9368 22.4349 31.7185 22.4783C31.5003 22.5218 31.2741 22.4995 31.0685 22.4143C30.863 22.3292 30.6873 22.185 30.5637 22C30.44 21.815 30.3741 21.5975 30.3741 21.375C30.3741 21.0766 30.4926 20.7904 30.7036 20.5795C30.9145 20.3685 31.2007 20.25 31.4991 20.25ZM30.9366 3.37496C31.7153 3.37496 32.4766 3.60589 33.1241 4.03855C33.7716 4.47121 34.2763 5.08616 34.5743 5.80564C34.8724 6.52513 34.9503 7.31683 34.7984 8.08063C34.6465 8.84443 34.2715 9.54602 33.7208 10.0967C33.1701 10.6474 32.4685 11.0224 31.7047 11.1743C30.9409 11.3262 30.1492 11.2483 29.4297 10.9502C28.7103 10.6522 28.0953 10.1475 27.6626 9.50002C27.23 8.8525 26.9991 8.09122 26.9991 7.31246C27.0002 6.26854 27.4155 5.26771 28.1536 4.52954C28.8918 3.79138 29.8926 3.37615 30.9366 3.37496ZM5.06156 33.75C4.28279 33.75 3.52152 33.519 2.874 33.0864C2.22648 32.6537 1.7218 32.0388 1.42378 31.3193C1.12576 30.5998 1.04779 29.8081 1.19972 29.0443C1.35164 28.2805 1.72665 27.5789 2.27732 27.0282C2.82799 26.4776 3.52959 26.1025 4.29339 25.9506C5.05719 25.7987 5.84889 25.8767 6.56837 26.1747C7.28786 26.4727 7.90281 26.9774 8.33547 27.6249C8.76813 28.2724 8.99906 29.0337 8.99906 29.8125C8.99787 30.8564 8.58264 31.8572 7.84447 32.5954C7.10631 33.3335 6.10548 33.7488 5.06156 33.75ZM21.3741 31.5C21.3741 31.7225 21.3081 31.94 21.1845 32.125C21.0608 32.31 20.8851 32.4542 20.6796 32.5393C20.474 32.6245 20.2478 32.6468 20.0296 32.6033C19.8114 32.5599 19.6109 32.4528 19.4536 32.2955C19.2962 32.1381 19.1891 31.9377 19.1457 31.7194C19.1023 31.5012 19.1245 31.275 19.2097 31.0694C19.2948 30.8639 19.439 30.6882 19.624 30.5646C19.809 30.4409 20.0266 30.375 20.2491 30.375C20.5474 30.375 20.8336 30.4935 21.0446 30.7045C21.2555 30.9154 21.3741 31.2016 21.3741 31.5ZM16.8741 4.49996C16.8741 4.27746 16.94 4.05995 17.0637 3.87494C17.1873 3.68994 17.363 3.54574 17.5685 3.4606C17.7741 3.37545 18.0003 3.35317 18.2185 3.39658C18.4368 3.43998 18.6372 3.54713 18.7946 3.70446C18.9519 3.8618 19.059 4.06225 19.1024 4.28048C19.1458 4.49871 19.1236 4.72491 19.0384 4.93048C18.9533 5.13605 18.8091 5.31175 18.6241 5.43536C18.4391 5.55898 18.2216 5.62496 17.9991 5.62496C17.7007 5.62496 17.4145 5.50643 17.2036 5.29545C16.9926 5.08448 16.8741 4.79833 16.8741 4.49996ZM5.06156 8.99996C4.28279 8.99996 3.52152 8.76903 2.874 8.33637C2.22648 7.90371 1.7218 7.28876 1.42378 6.56928C1.12576 5.84979 1.04779 5.05809 1.19972 4.29429C1.35164 3.53049 1.72665 2.8289 2.27732 2.27823C2.82799 1.72756 3.52959 1.35255 4.29339 1.20062C5.05719 1.04869 5.84889 1.12666 6.56837 1.42468C7.28786 1.7227 7.90281 2.22738 8.33547 2.8749C8.76813 3.52242 8.99906 4.2837 8.99906 5.06246C8.99787 6.10638 8.58264 7.10721 7.84447 7.84538C7.10631 8.58354 6.10548 8.99877 5.06156 8.99996ZM4.49906 19.125C4.27655 19.125 4.05905 19.059 3.87404 18.9354C3.68904 18.8117 3.54484 18.636 3.45969 18.4305C3.37454 18.2249 3.35227 17.9987 3.39567 17.7805C3.43908 17.5623 3.54623 17.3618 3.70356 17.2045C3.8609 17.0471 4.06135 16.94 4.27958 16.8966C4.49781 16.8532 4.72401 16.8754 4.92958 16.9606C5.13514 17.0457 5.31084 17.1899 5.43446 17.3749C5.55808 17.5599 5.62406 17.7775 5.62406 18C5.62406 18.2983 5.50553 18.5845 5.29455 18.7955C5.08357 19.0064 4.79743 19.125 4.49906 19.125ZM34.7734 34.6348C34.7259 34.7027 34.6641 34.7593 34.5922 34.8005C34.5203 34.8417 34.4403 34.8666 34.3577 34.8733C34.2762 34.8807 34.1942 34.8699 34.1174 34.8417C34.0407 34.8134 33.9711 34.7685 33.9139 34.7101L24.9831 25.7793C24.8278 25.623 24.6432 25.499 24.4397 25.4144C24.2363 25.3299 24.0182 25.2864 23.7979 25.2866C23.4654 25.2881 23.1406 25.3858 22.8624 25.5678C21.1068 26.7058 19.0071 27.1906 16.9303 26.9375C15.2535 26.7367 13.6671 26.0682 12.3523 25.0083C11.0375 23.9485 10.0474 22.5401 9.49519 20.9442C8.94299 19.3482 8.85097 17.6291 9.22963 15.9834C9.6083 14.3376 10.4424 12.8316 11.6365 11.6374C12.8307 10.4433 14.3367 9.6092 15.9825 9.23053C17.6282 8.85187 19.3473 8.9439 20.9433 9.49609C22.5392 10.0483 23.9476 11.0384 25.0074 12.3532C26.0673 13.668 26.7358 15.2544 26.9366 16.9312C27.1893 19.0083 26.7037 21.1081 25.5647 22.8633C25.3503 23.1872 25.2545 23.5753 25.2934 23.9618C25.3324 24.3482 25.5037 24.7094 25.7784 24.984L34.6659 33.8715C34.769 33.9669 34.836 34.0949 34.8556 34.234C34.8751 34.3731 34.8461 34.5146 34.7734 34.6348Z" fill="#030303"/>
<path d="M13.5 20.2499V21.2545C13.5018 21.5754 13.5938 21.8892 13.7656 22.1602C13.9374 22.4312 14.182 22.6483 14.4714 22.7868C15.5662 23.3371 16.7744 23.6237 17.9997 23.6237C19.225 23.6237 20.4333 23.3371 21.528 22.7868C21.8176 22.6485 22.0623 22.4314 22.2343 22.1604C22.4062 21.8894 22.4983 21.5754 22.5 21.2545V20.2499C22.4984 19.3564 22.2311 18.4835 21.7321 17.7423C21.2331 17.0011 20.5249 16.425 19.6976 16.0874C20.0523 15.6826 20.2485 15.1631 20.25 14.6249C20.25 14.0282 20.0129 13.4559 19.591 13.0339C19.169 12.612 18.5967 12.3749 18 12.3749C17.4033 12.3749 16.831 12.612 16.409 13.0339C15.9871 13.4559 15.75 14.0282 15.75 14.6249C15.7515 15.1631 15.9477 15.6826 16.3024 16.0874C15.4751 16.425 14.7669 17.0011 14.2679 17.7423C13.7689 18.4835 13.5016 19.3564 13.5 20.2499ZM16.875 14.6249C16.875 14.4024 16.941 14.1849 17.0646 13.9999C17.1882 13.8149 17.3639 13.6707 17.5695 13.5855C17.775 13.5004 18.0012 13.4781 18.2195 13.5215C18.4377 13.5649 18.6382 13.6721 18.7955 13.8294C18.9528 13.9867 19.06 14.1872 19.1034 14.4054C19.1468 14.6237 19.1245 14.8499 19.0394 15.0554C18.9542 15.261 18.81 15.4367 18.625 15.5603C18.44 15.6839 18.2225 15.7499 18 15.7499C17.7016 15.7499 17.4155 15.6314 17.2045 15.4204C16.9935 15.2094 16.875 14.9233 16.875 14.6249ZM18 16.8749C18.8948 16.8758 19.7528 17.2317 20.3855 17.8644C21.0182 18.4971 21.3741 19.3551 21.375 20.2499V21.2545C21.3739 21.363 21.3423 21.4689 21.2838 21.5602C21.2253 21.6515 21.1423 21.7245 21.0442 21.7709C20.1018 22.2525 19.0584 22.5037 18 22.5037C16.9416 22.5037 15.8982 22.2525 14.9557 21.7709C14.8577 21.7245 14.7747 21.6515 14.7162 21.5602C14.6577 21.4689 14.6261 21.363 14.625 21.2545V20.2499C14.6259 19.3551 14.9818 18.4971 15.6145 17.8644C16.2472 17.2317 17.1052 16.8758 18 16.8749ZM29.0453 10.3325C30.2625 10.8048 31.6125 10.8048 32.8297 10.3325C33.0999 10.2294 33.3324 10.0469 33.4967 9.80902C33.661 9.57112 33.7493 9.28901 33.75 8.9999C33.7483 8.50635 33.6164 8.02198 33.3675 7.59578C33.1186 7.16958 32.7616 6.81666 32.3325 6.57271C32.5051 6.31908 32.6054 6.02317 32.6224 5.71683C32.6394 5.41048 32.5726 5.10529 32.4291 4.83409C32.2857 4.56288 32.071 4.33592 31.8082 4.17762C31.5453 4.01932 31.2443 3.93567 30.9375 3.93567C30.6307 3.93567 30.3297 4.01932 30.0668 4.17762C29.804 4.33592 29.5893 4.56288 29.4459 4.83409C29.3024 5.10529 29.2356 5.41048 29.2526 5.71683C29.2696 6.02317 29.3699 6.31908 29.5425 6.57271C29.1134 6.81666 28.7564 7.16958 28.5075 7.59578C28.2586 8.02198 28.1267 8.50635 28.125 8.9999C28.1257 9.28901 28.214 9.57112 28.3783 9.80902C28.5426 10.0469 28.7751 10.2294 29.0453 10.3325ZM30.375 5.6249C30.375 5.51365 30.408 5.40489 30.4698 5.31239C30.5316 5.21989 30.6195 5.14779 30.7222 5.10522C30.825 5.06264 30.9381 5.0515 31.0472 5.07321C31.1564 5.09491 31.2566 5.14848 31.3352 5.22715C31.4139 5.30582 31.4675 5.40605 31.4892 5.51516C31.5109 5.62427 31.4998 5.73738 31.4572 5.84016C31.4146 5.94294 31.3425 6.03079 31.25 6.0926C31.1575 6.15441 31.0488 6.1874 30.9375 6.1874C30.7883 6.1874 30.6452 6.12814 30.5398 6.02265C30.4343 5.91716 30.375 5.77408 30.375 5.6249ZM30.9375 7.3124C31.3851 7.3124 31.8143 7.49019 32.1307 7.80666C32.4472 8.12312 32.625 8.55235 32.625 8.9999C32.6254 9.06065 32.6074 9.1201 32.5732 9.17034C32.5391 9.22057 32.4904 9.25922 32.4337 9.28115C31.4725 9.66026 30.4031 9.66026 29.4418 9.28115C29.385 9.25931 29.3363 9.2207 29.302 9.17046C29.2677 9.12021 29.2496 9.06072 29.25 8.9999C29.25 8.55235 29.4278 8.12312 29.7443 7.80666C30.0607 7.49019 30.4899 7.3124 30.9375 7.3124ZM6.4575 29.0727C6.63014 28.8191 6.73037 28.5232 6.7474 28.2168C6.76443 27.9105 6.69761 27.6053 6.55415 27.3341C6.41068 27.0629 6.19598 26.8359 5.93315 26.6776C5.67033 26.5193 5.36932 26.4357 5.0625 26.4357C4.75568 26.4357 4.45467 26.5193 4.19185 26.6776C3.92902 26.8359 3.71432 27.0629 3.57085 27.3341C3.42739 27.6053 3.36057 27.9105 3.3776 28.2168C3.39463 28.5232 3.49486 28.8191 3.6675 29.0727C3.23845 29.3167 2.88142 29.6696 2.63252 30.0958C2.38361 30.522 2.25166 31.0063 2.25 31.4999C2.25069 31.789 2.339 32.0711 2.50329 32.309C2.66758 32.5469 2.90012 32.7294 3.17025 32.8325C4.38754 33.3048 5.73746 33.3048 6.95475 32.8325C7.22488 32.7294 7.45742 32.5469 7.62171 32.309C7.786 32.0711 7.87431 31.789 7.875 31.4999C7.87334 31.0063 7.74139 30.522 7.49248 30.0958C7.24358 29.6696 6.88655 29.3167 6.4575 29.0727ZM4.5 28.1249C4.5 28.0136 4.53299 27.9049 4.5948 27.8124C4.65661 27.7199 4.74446 27.6478 4.84724 27.6052C4.95002 27.5626 5.06312 27.5515 5.17224 27.5732C5.28135 27.5949 5.38158 27.6485 5.46025 27.7272C5.53891 27.8058 5.59249 27.906 5.61419 28.0152C5.6359 28.1243 5.62476 28.2374 5.58218 28.3402C5.53961 28.4429 5.46751 28.5308 5.37501 28.5926C5.28251 28.6544 5.17375 28.6874 5.0625 28.6874C4.91332 28.6874 4.77024 28.6281 4.66475 28.5226C4.55926 28.4172 4.5 28.2741 4.5 28.1249ZM6.55875 31.7811C5.59747 32.1603 4.5281 32.1603 3.56681 31.7811C3.51005 31.7593 3.46128 31.7207 3.42702 31.6705C3.39275 31.6202 3.3746 31.5607 3.375 31.4999C3.375 31.0523 3.55279 30.6231 3.86926 30.3067C4.18572 29.9902 4.61495 29.8124 5.0625 29.8124C5.51005 29.8124 5.93928 29.9902 6.25574 30.3067C6.57221 30.6231 6.75 31.0523 6.75 31.4999C6.75044 31.5607 6.73238 31.6201 6.69822 31.6703C6.66405 31.7206 6.61541 31.7592 6.55875 31.7811ZM6.4575 4.32271C6.63014 4.06908 6.73037 3.77317 6.7474 3.46683C6.76443 3.16048 6.69761 2.85529 6.55415 2.58409C6.41068 2.31288 6.19598 2.08592 5.93315 1.92762C5.67033 1.76932 5.36932 1.68567 5.0625 1.68567C4.75568 1.68567 4.45467 1.76932 4.19185 1.92762C3.92902 2.08592 3.71432 2.31288 3.57085 2.58409C3.42739 2.85529 3.36057 3.16048 3.3776 3.46683C3.39463 3.77317 3.49486 4.06908 3.6675 4.32271C3.23845 4.56666 2.88142 4.91958 2.63252 5.34578C2.38361 5.77198 2.25166 6.25635 2.25 6.7499C2.25069 7.03901 2.339 7.32112 2.50329 7.55902C2.66758 7.79691 2.90012 7.97942 3.17025 8.08246C4.38754 8.55476 5.73746 8.55476 6.95475 8.08246C7.22488 7.97942 7.45742 7.79691 7.62171 7.55902C7.786 7.32112 7.87431 7.03901 7.875 6.7499C7.87334 6.25635 7.74139 5.77198 7.49248 5.34578C7.24358 4.91958 6.88655 4.56666 6.4575 4.32271ZM4.5 3.3749C4.5 3.26365 4.53299 3.15489 4.5948 3.06239C4.65661 2.96989 4.74446 2.89779 4.84724 2.85522C4.95002 2.81264 5.06312 2.8015 5.17224 2.82321C5.28135 2.84491 5.38158 2.89848 5.46025 2.97715C5.53891 3.05582 5.59249 3.15605 5.61419 3.26516C5.6359 3.37428 5.62476 3.48738 5.58218 3.59016C5.53961 3.69294 5.46751 3.78079 5.37501 3.8426C5.28251 3.90441 5.17375 3.9374 5.0625 3.9374C4.91332 3.9374 4.77024 3.87814 4.66475 3.77265C4.55926 3.66716 4.5 3.52408 4.5 3.3749ZM6.55875 7.03115C5.59747 7.41026 4.5281 7.41026 3.56681 7.03115C3.51005 7.00931 3.46128 6.9707 3.42702 6.92046C3.39275 6.87021 3.3746 6.81072 3.375 6.7499C3.375 6.30235 3.55279 5.87312 3.86926 5.55666C4.18572 5.24019 4.61495 5.0624 5.0625 5.0624C5.51005 5.0624 5.93928 5.24019 6.25574 5.55666C6.57221 5.87312 6.75 6.30235 6.75 6.7499C6.75044 6.81065 6.73238 6.8701 6.69822 6.92034C6.66405 6.97057 6.61541 7.00922 6.55875 7.03115Z" fill="#030303"/>
</g>
<defs>
<clipPath id="clip0_855_2653">
<rect width="36" height="36" fill="white"/>
</clipPath>
</defs>
</svg>
